# Blender v3.0.0 OBJ File: 'arena.blend'
# www.blender.org
mtllib arena.mtl
o mesh0
v 5.150000 0.441297 0.100000
v 5.150000 0.441297 -0.100000
v 5.150000 0.641297 -0.100000
v 5.150000 0.641297 0.100000
vn 1.0000 0.0000 0.0000
usemtl 0.792157_0.819608_0.933333_0.000000_0.000000
s 1
f 1//1 2//1 3//1
f 3//1 4//1 1//1
o mesh1
v 5.120000 0.641297 0.100000
v 5.150000 0.641297 0.100000
v 5.150000 0.641297 -0.100000
v 5.120000 0.641297 -0.100000
vn 0.0000 1.0000 0.0000
usemtl 0.792157_0.819608_0.933333_0.000000_0.000000
s 1
f 5//2 6//2 7//2
f 7//2 8//2 5//2
o mesh2
v 5.120000 0.641297 0.100000
v 5.120000 0.641297 -0.100000
v 5.120000 0.441297 -0.100000
v 5.120000 0.441297 0.100000
vt 1.000189 0.999611
vt 0.000389 1.000189
vt -0.000189 0.000389
vt 0.999611 -0.000189
vn -1.0000 0.0000 0.0000
usemtl tag2
s 1
f 9/1/3 10/2/3 11/3/3
f 11/3/3 12/4/3 9/1/3
o mesh3
v 5.120000 0.441297 0.100000
v 5.150000 0.441297 0.100000
v 5.150000 0.641297 0.100000
v 5.120000 0.641297 0.100000
vn 0.0000 -0.0000 1.0000
usemtl 0.792157_0.819608_0.933333_0.000000_0.000000
s 1
f 13//4 14//4 15//4
f 15//4 16//4 13//4
o mesh4
v 5.120000 0.441297 -0.100000
v 5.150000 0.441297 -0.100000
v 5.150000 0.441297 0.100000
v 5.120000 0.441297 0.100000
vn 0.0000 -1.0000 -0.0000
usemtl 0.792157_0.819608_0.933333_0.000000_0.000000
s 1
f 17//5 18//5 19//5
f 19//5 20//5 17//5
o mesh5
v 5.120000 0.641297 -0.100000
v 5.150000 0.641297 -0.100000
v 5.150000 0.441297 -0.100000
v 5.120000 0.441297 -0.100000
vn 0.0000 0.0000 -1.0000
usemtl 0.792157_0.819608_0.933333_0.000000_0.000000
s 1
f 21//6 22//6 23//6
f 23//6 24//6 21//6
o mesh6
v 5.000000 0.141296 5.000000
v 5.000000 -0.058704 5.000000
v -5.000000 -0.058704 5.000000
v -5.000000 0.141296 5.000000
vn 0.0000 0.0000 -1.0000
usemtl 0.792157_0.819608_0.933333_0.000000_0.000000
s 1
f 25//7 26//7 27//7
f 27//7 28//7 25//7
o mesh7
v -5.000000 0.141296 5.000000
v -5.000000 -0.058704 5.000000
v -5.000000 -0.058702 -5.000000
v -5.000000 0.141298 -5.000000
vn 1.0000 0.0000 0.0000
usemtl 0.792157_0.819608_0.933333_0.000000_0.000000
s 1
f 29//8 30//8 31//8
f 31//8 32//8 29//8
o mesh8
v -5.000000 0.141298 -5.000000
v -5.000000 -0.058702 -5.000000
v 5.000000 -0.058702 -5.000000
v 5.000000 0.141298 -5.000000
vn 0.0000 0.0000 1.0000
usemtl 0.792157_0.819608_0.933333_0.000000_0.000000
s 1
f 33//9 34//9 35//9
f 35//9 36//9 33//9
o mesh9
v 5.000000 0.141298 -5.000000
v 5.000000 -0.058702 -5.000000
v 5.000000 -0.058704 5.000000
v 5.000000 0.141296 5.000000
vn -1.0000 0.0000 0.0000
usemtl 0.792157_0.819608_0.933333_0.000000_0.000000
s 1
f 37//10 38//10 39//10
f 39//10 40//10 37//10
o mesh10
v 5.000000 -0.058704 5.000000
v 5.150000 -0.058704 5.150000
v 0.000000 -0.058704 5.150000
v -5.000000 -0.058704 5.000000
v -5.150000 -0.058704 5.150000
v -5.150000 -0.058703 0.000000
v -5.000000 -0.058702 -5.000000
v -5.150000 -0.058702 -5.150000
v 0.000000 -0.058702 -5.150000
v 5.000000 -0.058702 -5.000000
v 5.150000 -0.058702 -5.150000
v 5.150000 -0.058703 0.000000
vn 0.0000 -1.0000 -0.0000
usemtl 0.792157_0.819608_0.933333_0.000000_0.000000
s 1
f 41//11 42//11 43//11
f 44//11 45//11 46//11
f 43//11 44//11 41//11
f 46//11 47//11 44//11
f 47//11 48//11 49//11
f 50//11 51//11 52//11
f 46//11 48//11 47//11
f 49//11 50//11 47//11
f 52//11 41//11 50//11
f 49//11 51//11 50//11
f 43//11 45//11 44//11
f 52//11 42//11 41//11
o mesh11
v 5.000000 0.141296 5.000000
v 5.150000 0.141296 5.150000
v 5.150000 0.141297 0.000000
v 5.000000 0.141298 -5.000000
v 5.150000 0.141298 -5.150000
v 0.000000 0.141298 -5.150000
v -5.000000 0.141298 -5.000000
v -5.150000 0.141298 -5.150000
v -5.150000 0.141297 0.000000
v -5.000000 0.141296 5.000000
v -5.150000 0.141296 5.150000
v 0.000000 0.141296 5.150000
vn -0.0000 1.0000 0.0000
usemtl 0.792157_0.819608_0.933333_0.000000_0.000000
s 1
f 53//12 54//12 55//12
f 56//12 57//12 58//12
f 55//12 56//12 53//12
f 58//12 59//12 56//12
f 59//12 60//12 61//12
f 58//12 60//12 59//12
f 61//12 62//12 59//12
f 62//12 63//12 64//12
f 61//12 63//12 62//12
f 64//12 53//12 62//12
f 64//12 54//12 53//12
f 55//12 57//12 56//12
o mesh12
v 5.150000 0.141296 5.150000
v 0.000000 0.141296 5.150000
v 0.000000 -0.058704 5.150000
v -5.150000 -0.058704 5.150000
v -5.150000 0.141296 5.150000
v 5.150000 -0.058704 5.150000
vn 0.0000 0.0000 1.0000
usemtl 0.792157_0.819608_0.933333_0.000000_0.000000
s 1
f 65//13 66//13 67//13
f 68//13 67//13 66//13
f 66//13 69//13 68//13
f 67//13 70//13 65//13
o mesh13
v -5.150000 0.141296 5.150000
v -5.150000 0.141297 0.000000
v -5.150000 -0.058703 0.000000
v -5.150000 -0.058702 -5.150000
v -5.150000 0.141298 -5.150000
v -5.150000 -0.058704 5.150000
vn -1.0000 -0.0000 0.0000
usemtl 0.792157_0.819608_0.933333_0.000000_0.000000
s 1
f 71//14 72//14 73//14
f 74//14 73//14 72//14
f 72//14 75//14 74//14
f 73//14 76//14 71//14
o mesh14
v -5.150000 0.141298 -5.150000
v 0.000000 0.141298 -5.150000
v 0.000000 -0.058702 -5.150000
v 5.150000 -0.058702 -5.150000
v 5.150000 0.141298 -5.150000
v -5.150000 -0.058702 -5.150000
vn 0.0000 0.0000 -1.0000
usemtl 0.792157_0.819608_0.933333_0.000000_0.000000
s 1
f 77//15 78//15 79//15
f 80//15 79//15 78//15
f 78//15 81//15 80//15
f 79//15 82//15 77//15
o mesh15
v 5.150000 0.141298 -5.150000
v 5.150000 0.141297 0.000000
v 5.150000 -0.058703 0.000000
v 5.150000 -0.058704 5.150000
v 5.150000 0.141296 5.150000
v 5.150000 -0.058702 -5.150000
vn 1.0000 0.0000 0.0000
usemtl 0.792157_0.819608_0.933333_0.000000_0.000000
s 1
f 83//16 84//16 85//16
f 86//16 85//16 84//16
f 84//16 87//16 86//16
f 85//16 88//16 83//16
o mesh16
v -5.150000 0.641297 0.100000
v -5.150000 0.641297 -0.100000
v -5.150000 0.441297 -0.100000
v -5.150000 0.441297 0.100000
vn -1.0000 -0.0000 0.0000
usemtl 0.792157_0.819608_0.933333_0.000000_0.000000
s 1
f 89//17 90//17 91//17
f 91//17 92//17 89//17
o mesh17
v -5.120000 0.048278 0.100000
v -5.150000 0.048278 0.100000
v -5.150000 0.048278 -0.100000
v -5.120000 0.048278 -0.100000
vn 0.0000 -1.0000 -0.0000
usemtl 0.792157_0.819608_0.933333_0.000000_0.000000
s 1
f 93//18 94//18 95//18
f 95//18 96//18 93//18
o mesh18
v -5.120000 0.441297 0.100000
v -5.120000 0.441297 -0.100000
v -5.120000 0.641297 -0.100000
v -5.120000 0.641297 0.100000
vt 0.000100 0.000100
vt 0.999900 0.000100
vt 0.999900 0.999900
vt 0.000100 0.999900
vn 1.0000 -0.0000 0.0000
usemtl Tag4
s 1
f 97/5/19 98/6/19 99/7/19
f 99/7/19 100/8/19 97/5/19
o mesh19
v -5.120000 0.641297 0.100000
v -5.150000 0.641297 0.100000
v -5.150000 0.441297 0.100000
v -5.120000 0.441297 0.100000
vn 0.0000 -0.0000 1.0000
usemtl 0.792157_0.819608_0.933333_0.000000_0.000000
s 1
f 101//20 102//20 103//20
f 103//20 104//20 101//20
o mesh20
v -5.120000 0.641297 -0.100000
v -5.150000 0.641297 -0.100000
v -5.150000 0.641297 0.100000
v -5.120000 0.641297 0.100000
vn 0.0000 1.0000 0.0000
usemtl 0.792157_0.819608_0.933333_0.000000_0.000000
s 1
f 105//21 106//21 107//21
f 107//21 108//21 105//21
o mesh21
v -5.120000 0.441297 -0.100000
v -5.150000 0.441297 -0.100000
v -5.150000 0.641297 -0.100000
v -5.120000 0.641297 -0.100000
vn 0.0000 0.0000 -1.0000
usemtl 0.792157_0.819608_0.933333_0.000000_0.000000
s 1
f 109//22 110//22 111//22
f 111//22 112//22 109//22
o mesh22
v -0.100000 0.641298 -5.150000
v 0.100000 0.641298 -5.150000
v 0.100000 0.441298 -5.150000
v -0.100000 0.441298 -5.150000
vn 0.0000 0.0000 -1.0000
usemtl 0.792157_0.819608_0.933333_0.000000_0.000000
s 1
f 113//23 114//23 115//23
f 115//23 116//23 113//23
o mesh23
v -0.100000 0.441298 -5.120000
v -0.100000 0.441298 -5.150000
v 0.100000 0.441298 -5.150000
v 0.100000 0.441298 -5.120000
vn 0.0000 -1.0000 0.0000
usemtl 0.792157_0.819608_0.933333_0.000000_0.000000
s 1
f 117//24 118//24 119//24
f 119//24 120//24 117//24
o mesh24
v -0.100000 0.441298 -5.120000
v 0.100000 0.441298 -5.120000
v 0.100000 0.641298 -5.120000
v -0.100000 0.641298 -5.120000
vt 0.000100 0.000102
vt 0.999899 0.000100
vt 0.999899 0.999900
vt 0.000100 0.999900
vn 0.0000 0.0000 1.0000
usemtl Tag1
s 1
f 121/9/25 122/10/25 123/11/25
f 123/11/25 124/12/25 121/9/25
o mesh25
v -0.100000 0.641298 -5.120000
v -0.100000 0.641298 -5.150000
v -0.100000 0.441298 -5.150000
v -0.100000 0.441298 -5.120000
vn -1.0000 0.0000 0.0000
usemtl 0.792157_0.819608_0.933333_0.000000_0.000000
s 1
f 125//26 126//26 127//26
f 127//26 128//26 125//26
o mesh26
v 0.100000 0.641298 -5.120000
v 0.100000 0.641298 -5.150000
v -0.100000 0.641298 -5.150000
v -0.100000 0.641298 -5.120000
vn 0.0000 1.0000 0.0000
usemtl 0.792157_0.819608_0.933333_0.000000_0.000000
s 1
f 129//27 130//27 131//27
f 131//27 132//27 129//27
o mesh27
v 0.100000 0.441298 -5.120000
v 0.100000 0.441298 -5.150000
v 0.100000 0.641298 -5.150000
v 0.100000 0.641298 -5.120000
vn 1.0000 0.0000 0.0000
usemtl 0.792157_0.819608_0.933333_0.000000_0.000000
s 1
f 133//28 134//28 135//28
f 135//28 136//28 133//28
o mesh28
v 0.100000 0.641296 5.150000
v -0.100000 0.641296 5.150000
v -0.100000 0.441296 5.150000
v 0.100000 0.441296 5.150000
vn 0.0000 0.0000 1.0000
usemtl 0.792157_0.819608_0.933333_0.000000_0.000000
s 1
f 137//29 138//29 139//29
f 139//29 140//29 137//29
o mesh29
v 0.100000 0.441296 5.120000
v 0.100000 0.441296 5.150000
v -0.100000 0.441296 5.150000
v -0.100000 0.441296 5.120000
vn 0.0000 -1.0000 0.0000
usemtl 0.792157_0.819608_0.933333_0.000000_0.000000
s 1
f 141//30 142//30 143//30
f 143//30 144//30 141//30
o mesh30
v 0.100000 0.441296 5.120000
v -0.100000 0.441296 5.120000
v -0.100000 0.641296 5.120000
v 0.100000 0.641296 5.120000
vt 0.000100 0.000102
vt 0.999899 0.000100
vt 0.999899 0.999900
vt 0.000100 0.999900
vn 0.0000 0.0000 -1.0000
usemtl Tag3
s 1
f 145/13/31 146/14/31 147/15/31
f 147/15/31 148/16/31 145/13/31
o mesh31
v 0.100000 0.641296 5.120000
v 0.100000 0.641296 5.150000
v 0.100000 0.441296 5.150000
v 0.100000 0.441296 5.120000
vn 1.0000 0.0000 0.0000
usemtl 0.792157_0.819608_0.933333_0.000000_0.000000
s 1
f 149//32 150//32 151//32
f 151//32 152//32 149//32
o mesh32
v -0.100000 0.641296 5.120000
v -0.100000 0.641296 5.150000
v 0.100000 0.641296 5.150000
v 0.100000 0.641296 5.120000
vn 0.0000 1.0000 0.0000
usemtl 0.792157_0.819608_0.933333_0.000000_0.000000
s 1
f 153//33 154//33 155//33
f 155//33 156//33 153//33
o mesh33
v -0.100000 0.441296 5.120000
v -0.100000 0.441296 5.150000
v -0.100000 0.641296 5.150000
v -0.100000 0.641296 5.120000
vn -1.0000 0.0000 0.0000
usemtl 0.792157_0.819608_0.933333_0.000000_0.000000
s 1
f 157//34 158//34 159//34
f 159//34 160//34 157//34
